<!DOCTYPE svg PUBLIC "-//W3C//DTD SVG 1.1//EN" "http://www.w3.org/Graphics/SVG/1.1/DTD/svg11.dtd">
<!-- Uploaded to: SVG Repo, www.svgrepo.com, Transformed by: SVG Repo Mixer Tools -->
<svg width="800px" height="800px" viewBox="-9.36 -9.36 42.72 42.72" fill="none" xmlns="http://www.w3.org/2000/svg" stroke="#878787">
<g id="SVGRepo_bgCarrier" stroke-width="0">
<rect x="-9.36" y="-9.36" width="42.72" height="42.72" rx="21.36" fill="#ffffff" strokewidth="0"/>
</g>
<g id="SVGRepo_tracerCarrier" stroke-linecap="round" stroke-linejoin="round"/>
<g id="SVGRepo_iconCarrier"> <path d="M7 9.5L12 12M7 9.5V14.5L12 17M7 9.5L12 7L17 9.5M12 12L17 9.5M12 12V17M17 9.5V14.5L12 17M8 4H6C4.89543 4 4 4.89543 4 6V8M8 20H6C4.89543 20 4 19.1046 4 18V16M16 4H18C19.1046 4 20 4.89543 20 6V8M16 20H18C19.1046 20 20 19.1046 20 18V16" stroke="#000000" stroke-width="2" stroke-linecap="round" stroke-linejoin="round"/> </g>
</svg>